<svg width="18" height="18" viewBox="0 0 18 18" fill="none">
    <path
      d="M9.00001 0.666687C4.41667 0.666687 0.666672 4.41669 0.666672 9.00002C0.666672 13.5834 4.41667 17.3334 9.00001 17.3334C13.5833 17.3334 17.3333 13.5834 17.3333 9.00002C17.3333 4.41669 13.5833 0.666687 9.00001 0.666687ZM12.0833 10.9167C12.4167 11.25 12.4167 11.75 12.0833 12.0834C11.75 12.4167 11.25 12.4167 10.9167 12.0834L9.00001 10.1667L7.08334 12.0834C6.75001 12.4167 6.25001 12.4167 5.91667 12.0834C5.58334 11.75 5.58334 11.25 5.91667 10.9167L7.83334 9.00002L5.91667 7.08335C5.58334 6.75002 5.58334 6.25002 5.91667 5.91669C6.25001 5.58335 6.75001 5.58335 7.08334 5.91669L9.00001 7.83335L10.9167 5.91669C11.25 5.58335 11.75 5.58335 12.0833 5.91669C12.4167 6.25002 12.4167 6.75002 12.0833 7.08335L10.1667 9.00002L12.0833 10.9167Z"
      fill="#E12828"
    />
</svg>