<svg viewBox="0 0 18 18" fill="none" className="w-[18px] h-[18px] mr-[2px]">
    <path
      d="M9.00001 0.666687C4.41667 0.666687 0.666672 4.41669 0.666672 9.00002C0.666672 13.5834 4.41667 17.3334 9.00001 17.3334C13.5833 17.3334 17.3333 13.5834 17.3333 9.00002C17.3333 4.41669 13.5833 0.666687 9.00001 0.666687ZM12.5 7.58335L8.50001 11.5834C8.16667 11.9167 7.66667 11.9167 7.33334 11.5834L5.50001 9.75002C5.16667 9.41669 5.16667 8.91669 5.50001 8.58335C5.83334 8.25002 6.33334 8.25002 6.66667 8.58335L7.91667 9.83335L11.3333 6.41669C11.6667 6.08335 12.1667 6.08335 12.5 6.41669C12.8333 6.75002 12.8333 7.25002 12.5 7.58335Z"
      fill="#00D2A2"
    />
</svg>